<svg width="80" height="80" viewBox="0 0 80 80" fill="none" xmlns="http://www.w3.org/2000/svg">
<rect width="80" height="80" rx="40" fill="#FFE5E5"/>
<g clip-path="url(#clip0_3210_13159)">
<path d="M49.123 19.2405H30.8769C29.6708 19.2405 28.514 19.7196 27.6611 20.5725C26.8082 21.4254 26.3291 22.5822 26.3291 23.7883V60.26C26.3291 62.7731 28.3661 64.8101 30.8769 64.8101H49.1207C50.3271 64.8101 51.4841 64.331 52.3374 63.4782C53.1906 62.6254 53.6703 61.4686 53.6709 60.2622V23.7883C53.6709 22.5822 53.1917 21.4254 52.3388 20.5725C51.486 19.7196 50.3292 19.2405 49.123 19.2405V19.2405ZM40 62.5316C38.4278 62.5316 37.1519 61.5131 37.1519 60.2531C37.1519 58.9931 38.4278 57.9747 40 57.9747C41.5721 57.9747 42.8481 58.9931 42.8481 60.2531C42.8481 61.5131 41.5721 62.5316 40 62.5316ZM49.1139 55.6962H30.8861V23.7974H49.1139V55.6962Z" fill="#9F2A2A"/>
</g>
<defs>
<clipPath id="clip0_3210_13159">
<rect width="45.5696" height="45.5696" fill="white" transform="translate(17.2153 19.2405)"/>
</clipPath>
</defs>
</svg>
