<svg width="80" height="81" viewBox="0 0 80 81" fill="none" xmlns="http://www.w3.org/2000/svg">
<rect y="0.367065" width="80" height="80" rx="40" fill="#D9FFD7"/>
<path d="M46.7746 53.4336L45.7377 45.1314C45.5907 43.9555 45.0192 42.8737 44.1307 42.0896C43.2421 41.3055 42.0976 40.873 40.9126 40.8734H37.3415C36.157 40.8737 35.0133 41.3066 34.1255 42.0907C33.2376 42.8747 32.6665 43.956 32.5196 45.1314L31.4811 53.4336C31.4241 53.8897 31.4648 54.3528 31.6004 54.792C31.7361 55.2311 31.9637 55.6364 32.268 55.9809C32.5724 56.3254 32.9465 56.6012 33.3656 56.79C33.7847 56.9788 34.2392 57.0763 34.6989 57.0759H43.5584C44.018 57.076 44.4723 56.9784 44.8912 56.7895C45.3101 56.6006 45.684 56.3248 45.9882 55.9803C46.2924 55.6359 46.5198 55.2306 46.6554 54.7916C46.791 54.3525 46.8316 53.8896 46.7746 53.4336V53.4336Z" stroke="#006A38" stroke-width="3.24051" stroke-linecap="round" stroke-linejoin="round"/>
<path d="M39.1283 34.3924C41.8129 34.3924 43.9891 32.2162 43.9891 29.5317C43.9891 26.8471 41.8129 24.6709 39.1283 24.6709C36.4438 24.6709 34.2676 26.8471 34.2676 29.5317C34.2676 32.2162 36.4438 34.3924 39.1283 34.3924Z" stroke="#006A38" stroke-width="3.24051"/>
<path d="M26.1663 39.2532C27.956 39.2532 29.4068 37.8024 29.4068 36.0127C29.4068 34.223 27.956 32.7722 26.1663 32.7722C24.3766 32.7722 22.9258 34.223 22.9258 36.0127C22.9258 37.8024 24.3766 39.2532 26.1663 39.2532Z" stroke="#006A38" stroke-width="3.24051"/>
<path d="M52.0901 39.2532C53.8798 39.2532 55.3306 37.8024 55.3306 36.0127C55.3306 34.223 53.8798 32.7722 52.0901 32.7722C50.3004 32.7722 48.8496 34.223 48.8496 36.0127C48.8496 37.8024 50.3004 39.2532 52.0901 39.2532Z" stroke="#006A38" stroke-width="3.24051"/>
<path d="M26.1664 44.1141H25.6706C24.9035 44.114 24.1612 44.3861 23.5759 44.8818C22.9905 45.3776 22.6 46.0649 22.4738 46.8216L21.9343 50.0621C21.8569 50.5264 21.8815 51.0019 22.0065 51.4557C22.1315 51.9095 22.3538 52.3306 22.6581 52.6898C22.9623 53.0489 23.3412 53.3374 23.7682 53.5353C24.1953 53.7332 24.6604 53.8357 25.131 53.8357H31.0271" stroke="#006A38" stroke-width="3.24051" stroke-linecap="round" stroke-linejoin="round"/>
<path d="M52.0903 44.1141H52.586C53.3531 44.114 54.0954 44.3861 54.6808 44.8818C55.2661 45.3776 55.6566 46.0649 55.7828 46.8216L56.3224 50.0621C56.3998 50.5264 56.3751 51.0019 56.2501 51.4557C56.1251 51.9095 55.9028 52.3306 55.5985 52.6898C55.2943 53.0489 54.9155 53.3374 54.4884 53.5353C54.0613 53.7332 53.5963 53.8357 53.1256 53.8357H47.2295" stroke="#006A38" stroke-width="3.24051" stroke-linecap="round" stroke-linejoin="round"/>
</svg>
