<svg width="80" height="81" viewBox="0 0 80 81" fill="none" xmlns="http://www.w3.org/2000/svg">
<rect y="0.480957" width="80" height="80" rx="40" fill="#E5F6FF"/>
<path fill-rule="evenodd" clip-rule="evenodd" d="M55.8592 20.2536C54.0974 23.6655 46.4106 40.426 46.4106 40.8558C46.4106 41.1654 46.375 41.4186 46.3312 41.4186C46.2876 41.4186 45.3018 40.9025 44.1407 40.2716C42.6829 39.4795 41.9569 39.1975 41.7943 39.3601C41.6649 39.4895 41.5176 40.1844 41.4672 40.9043C41.3294 42.8739 41.849 43.5055 44.8568 45.0237C47.6689 46.4431 48.3647 46.4635 49.7778 45.1681C50.6079 44.4071 50.6108 44.3975 50.6176 42.514L50.6244 40.624L55.3474 30.6344C57.945 25.1401 60.117 20.5354 60.1738 20.4014C60.2308 20.2677 60.0187 20.0402 59.7027 19.8963C59.0032 19.5775 59.6303 18.4108 53.5566 31.3357C49.8278 39.2713 48.9544 41.308 49.136 41.6472C49.2604 41.8797 49.3621 42.4777 49.3621 42.9765C49.3621 43.6853 49.2318 43.9857 48.7639 44.3535C48.4349 44.6123 47.9731 44.8241 47.7377 44.8241C47.5022 44.8241 46.3854 44.3598 45.2557 43.7927C43.6056 42.9638 43.1413 42.618 42.8939 42.0332C42.7243 41.6327 42.6761 41.2724 42.7867 41.2322C42.8973 41.1922 43.8025 41.5834 44.798 42.1013C45.8181 42.6321 46.8379 43.0108 47.134 42.9688C47.5983 42.9029 47.6632 42.7617 47.6918 41.7521C47.7195 40.7729 48.3943 39.1868 52.4228 30.6274C55.0071 25.137 57.1676 20.5354 57.2237 20.4014C57.28 20.2677 57.0677 20.0405 56.7521 19.8967C56.2349 19.6611 56.1471 19.6963 55.8592 20.2536ZM25.8639 22.7242C24.865 23.3014 24.014 23.8015 23.9727 23.8356C23.9316 23.8696 24.0737 24.1659 24.2887 24.494C24.8797 25.396 24.4454 26.2072 23.3713 26.2072H22.5719V28.4776V30.7479H23.3713C24.4311 30.7479 24.8799 31.5589 24.3055 32.4352C23.8787 33.0868 23.72 32.9324 26.4097 34.4792C27.9243 35.3504 27.9018 35.352 28.4905 34.3237C28.8653 33.6687 29.7739 33.827 30.1833 34.6184L30.5411 35.3106L32.0665 34.4481C34.7344 32.9402 34.5426 33.1309 34.1319 32.3951C33.5827 31.4113 33.97 30.7479 35.0936 30.7479H35.967V28.4776V26.2072H35.1853C34.1148 26.2072 33.5441 25.4523 34.0408 24.694C34.2261 24.4113 34.3778 24.0878 34.3778 23.9754C34.3778 23.8631 33.5436 23.2864 32.5242 22.6941L30.6707 21.6172L30.2589 22.1526C30.0325 22.4473 29.8448 22.7647 29.842 22.8584C29.8393 22.9522 29.5844 23.0287 29.2754 23.0287C28.8808 23.0287 28.6088 22.826 28.3613 22.3476C28.1676 21.973 27.9352 21.6683 27.8446 21.6706C27.7542 21.6728 26.8629 22.1469 25.8639 22.7242ZM27.7149 23.8951C28.0861 24.4894 30.3728 24.4495 30.8178 23.8408C31.1214 23.4256 31.1459 23.4256 31.8452 23.8385C32.6241 24.2987 32.6768 24.4322 32.3338 25.0732C32.181 25.359 32.1819 25.5454 32.3372 25.6412C32.4641 25.7198 32.7728 26.1856 33.0235 26.6767C33.3686 27.3533 33.6151 27.5694 34.0417 27.5694C34.5474 27.5694 34.6048 27.6623 34.6048 28.4776C34.6048 29.2928 34.5474 29.3857 34.0417 29.3857C33.6151 29.3857 33.3686 29.6018 33.0235 30.2784C32.7728 30.7695 32.4641 31.2354 32.3372 31.3139C32.1819 31.4097 32.181 31.5961 32.3338 31.882C32.675 32.5192 32.6241 32.6405 31.8254 33.0952C31.1039 33.5059 31.0876 33.505 30.7776 33.0385C30.5184 32.648 30.2296 32.5642 29.1434 32.5642C28.0237 32.5642 27.8026 32.6328 27.6802 33.0183C27.5018 33.5804 27.4069 33.5809 26.491 33.0224C25.8203 32.6135 25.7786 32.5238 26.016 32.0025C26.2272 31.5391 26.2083 31.3555 25.9157 31.0322C25.7173 30.8128 25.4482 30.3529 25.3177 30.0096C25.1453 29.5564 24.9235 29.3857 24.5074 29.3857C23.99 29.3857 23.9341 29.2972 23.9341 28.4776C23.9341 27.6882 24.0009 27.569 24.4449 27.5662C25.179 27.5615 26.323 25.4907 25.9631 24.8182C25.6784 24.2865 25.6464 24.3392 26.545 23.8624C27.4096 23.4035 27.408 23.4035 27.7149 23.8951ZM40.6374 29.2029C40.3 31.3639 39.8418 34.2302 39.6193 35.5724C39.3966 36.9147 39.257 38.0131 39.3087 38.0131C39.3605 38.0131 39.7558 37.7438 40.1871 37.4148C40.9187 36.857 40.9995 36.8415 41.382 37.1878C41.8372 37.5998 42.4527 37.6748 42.6575 37.3433C42.7333 37.2205 43.1263 37.3256 43.5707 37.5878L44.3505 38.048L45.2634 37.3145C45.866 36.83 46.2163 36.3421 46.2944 35.878C47.3399 29.6584 47.7495 26.56 47.5429 26.4324C47.4121 26.3516 46.0565 26.1012 44.5306 25.8764C43.0049 25.6514 41.6427 25.4239 41.5037 25.3708C41.3375 25.3072 41.0408 26.62 40.6374 29.2029ZM28.6263 26.5857C28.5429 26.6688 28.4748 26.9753 28.4748 27.2668C28.4748 27.6804 28.3504 27.7964 27.9072 27.7964C27.428 27.7964 27.3396 27.9025 27.3396 28.4776C27.3396 29.0476 27.4296 29.1587 27.8923 29.1587C28.3261 29.1587 28.4601 29.2926 28.5166 29.783C28.5729 30.2734 28.7223 30.4228 29.2127 30.4791C29.7737 30.5438 29.837 30.4805 29.837 29.8548C29.837 29.2327 29.9095 29.1587 30.5181 29.1587C31.1237 29.1587 31.1993 29.0831 31.1993 28.4776C31.1993 27.8721 31.1237 27.7964 30.5181 27.7964C29.9126 27.7964 29.837 27.7208 29.837 27.1153C29.837 26.5532 29.7446 26.4342 29.3074 26.4342C29.0159 26.4342 28.7094 26.5023 28.6263 26.5857ZM44.9796 27.2634C45.9327 27.3755 46.1836 27.4897 46.1836 27.8114C46.1836 28.0351 45.9191 29.8856 45.5958 31.9237C45.1688 34.6161 44.895 35.7461 44.5946 36.0565C44.19 36.4747 44.1664 36.4733 43.4955 35.9956C43.075 35.6962 42.7547 35.5967 42.6671 35.7386C42.4443 36.0991 41.7496 36.0106 41.3607 35.5724C41.0413 35.2123 41.0587 34.8568 41.5487 31.7696C42.4228 26.2612 42.2473 26.8161 43.0648 26.9798C43.456 27.0579 44.3176 27.1855 44.9796 27.2634ZM56.4002 34.8536C56.4002 35.5322 56.8275 35.7343 58.2733 35.7395C59.0291 35.7422 59.1246 35.6796 59.1246 35.1794C59.1246 34.5821 58.8922 34.4758 57.2516 34.3235C56.4597 34.2502 56.4002 34.2872 56.4002 34.8536ZM55.2491 37.6916C54.8607 38.1597 55.134 38.582 56.2293 39.2061C57.0695 39.6847 57.0843 39.6854 57.4139 39.2493C57.8739 38.641 57.8816 38.6565 56.7732 37.9563C55.6144 37.2241 55.6342 37.2275 55.2491 37.6916ZM27.5667 42.4402V45.7323H34.0817H40.5967L39.8602 44.9724C39.193 44.2838 39.1491 44.1564 39.395 43.6167C39.6073 43.1511 39.6053 42.9477 39.3855 42.6827C39.1623 42.4139 39.1623 42.1694 39.385 41.4944C39.6609 40.6582 39.6516 40.6324 38.8002 39.8963L37.9347 39.1482H32.7506H27.5667V42.4402ZM53.0598 40.0119L52.5572 40.3969L53.2458 41.5836C53.9276 42.7588 53.9401 42.7669 54.4908 42.406L55.0471 42.0416L54.4448 40.9922C53.6304 39.5735 53.6313 39.5739 53.0598 40.0119ZM37.7767 40.7286C38.0612 40.9084 38.0666 41.0608 37.8146 41.7578C37.5803 42.4062 37.5767 42.6455 37.798 42.912C38.0096 43.1672 38.0153 43.3838 37.8214 43.8093L37.566 44.37H33.2473H28.9289V42.4402V40.5104L33.1858 40.5138C35.5272 40.5159 37.593 40.6124 37.7767 40.7286ZM18.2582 45.7323V46.4134H21.6638H25.0693V47.0945V47.7756H23.026H20.9827V49.0129V50.2503L19.6772 50.3184L18.3717 50.3865V53.6785V56.9705L28.6451 57.0296L38.9185 57.0886V59.0138V60.9391L28.6451 60.9981L18.3717 61.0572L18.3 61.6815L18.228 62.3059H39.5996H60.9711L60.8991 61.6815L60.8274 61.0572L50.554 60.9981L40.2807 60.9391V59.0138V57.0886L50.554 57.0296L60.8274 56.9705V53.6785V50.3865L57.4786 50.3236L54.1299 50.2609V48.337V46.4134H57.5354H60.9409V45.7323V45.0512H56.9678H52.9947V47.6621V50.273H51.6325H50.2702V49.0263V47.7797L38.2941 47.7209L26.318 47.6621L26.2499 46.3566L26.1818 45.0512H22.22H18.2582V45.7323ZM48.908 51.0676V52.9974H35.6264H22.3449V51.0676V49.1378H35.6264H48.908V51.0676ZM20.9827 52.9974V54.3596H35.6264H50.2702V52.9974V51.6352H54.9245H59.5787V53.6785V55.7218H39.5996H19.6204V53.6785V51.6352H20.3015H20.9827V52.9974Z" fill="#006277"/>
</svg>
